<svg width="575" height="575" xmlns="http://www.w3.org/2000/svg" version="1.1">
 <g>
  <title>Layer 1</title>
  <rect id="svg_1" height="61.81814" width="190.3029" y="82.19671" x="75.53005" stroke="#000" fill="#919288"/>
  <g id="svg_18">
   <path d="m497.5,57.5l-420,0c-13.91,0.03906 -27.242,5.5859 -37.078,15.422s-15.383,23.168 -15.422,37.078l0,52.5l525,0l0,-52.5c-0.03906,-13.91 -5.5859,-27.242 -15.422,-37.078s-23.168,-15.383 -37.078,-15.422zm-385,70c-4.6406,0 -9.0938,-1.8438 -12.375,-5.125s-5.125,-7.7344 -5.125,-12.375s1.8438,-9.0938 5.125,-12.375s7.7344,-5.125 12.375,-5.125s9.0938,1.8438 12.375,5.125s5.125,7.7344 5.125,12.375c-0.01172,4.6367 -1.8633,9.082 -5.1406,12.359s-7.7227,5.1289 -12.359,5.1406l-0.0004,0.0004zm52.5,0c-4.6406,0 -9.0938,-1.8438 -12.375,-5.125s-5.125,-7.7344 -5.125,-12.375s1.8438,-9.0938 5.125,-12.375s7.7344,-5.125 12.375,-5.125s9.0938,1.8438 12.375,5.125s5.125,7.7344 5.125,12.375c-0.01172,4.6367 -1.8633,9.082 -5.1406,12.359s-7.7227,5.1289 -12.359,5.1406l-0.0004,0.0004zm52.5,0c-4.6406,0 -9.0938,-1.8438 -12.375,-5.125s-5.125,-7.7344 -5.125,-12.375s1.8438,-9.0938 5.125,-12.375s7.7344,-5.125 12.375,-5.125s9.0938,1.8438 12.375,5.125s5.125,7.7344 5.125,12.375c-0.01172,4.6367 -1.8633,9.082 -5.1406,12.359s-7.7227,5.1289 -12.359,5.1406l-0.0004,0.0004z" id="svg_2" fill="#1b1c19"/>
   <rect fill="#ff6188" x="67.31925" y="177.74095" width="116.86746" height="71.08433" id="svg_6"/>
   <rect fill="#ff6188" x="75.75299" y="260.87347" width="185.54216" height="59.03614" id="svg_7"/>
   <rect fill="#ff6188" x="79.36744" y="336.17467" width="113.25301" height="52.40964" id="svg_8"/>
   <rect fill="#ff6188" x="73.34335" y="400.6325" width="105.42168" height="59.03614" id="svg_9"/>
   <rect fill="#78dce8" x="187.80117" y="190.39155" width="178.31324" height="56.6265" id="svg_10"/>
   <rect fill="#fc9867" x="381.77707" y="190.99396" width="109.63855" height="58.43373" id="svg_11"/>
   <rect fill="#fc9867" x="398.04213" y="263.28311" width="106.6265" height="53.61446" id="svg_12"/>
   <rect fill="#fc9867" x="381.77707" y="401.23491" width="120.48192" height="54.81927" id="svg_13"/>
   <rect fill="#ab9df2" x="305.27105" y="332.56022" width="190.96385" height="54.81927" id="svg_14"/>
   <rect fill="#a9dc76" x="276.9578" y="262.6807" width="107.22891" height="51.20482" id="svg_15"/>
   <rect fill="#a9dc76" x="207.68069" y="337.9819" width="90.36144" height="49.39759" id="svg_16"/>
   <rect fill="#a9dc76" x="189.00599" y="404.84937" width="180.72288" height="54.21686" id="svg_17"/>
   <path d="m25,132.5l0,332.5c0.03906,13.91 5.5859,27.242 15.422,37.078s23.168,15.383 37.078,15.422l420,0c13.91,-0.03906 27.242,-5.5859 37.078,-15.422s15.383,-23.168 15.422,-37.078l0,-332.5l-525,0zm350,157.5c0,4.6406 -1.8438,9.0938 -5.125,12.375s-7.7344,5.125 -12.375,5.125l-52.5,0c-6.2539,0 -12.031,-3.3359 -15.156,-8.75s-3.125,-12.086 0,-17.5s8.9023,-8.75 15.156,-8.75l52.5,0c4.6406,0 9.0938,1.8438 12.375,5.125s5.125,7.7344 5.125,12.375zm-157.5,-87.5l122.5,0c6.2539,0 12.031,3.3359 15.156,8.75s3.125,12.086 0,17.5s-8.9023,8.75 -15.156,8.75l-122.5,0c-6.2539,0 -12.031,-3.3359 -15.156,-8.75s-3.125,-12.086 0,-17.5s8.9023,-8.75 15.156,-8.75zm70,157.5c0,4.6406 -1.8438,9.0938 -5.125,12.375s-7.7344,5.125 -12.375,5.125l-35,0c-6.2539,0 -12.031,-3.3359 -15.156,-8.75s-3.125,-12.086 0,-17.5s8.9023,-8.75 15.156,-8.75l35,0c4.6406,0 9.0938,1.8438 12.375,5.125s5.125,7.7344 5.125,12.375zm-175,-157.5l35,0c6.2539,0 12.031,3.3359 15.156,8.75s3.125,12.086 0,17.5s-8.9023,8.75 -15.156,8.75l-35,0c-6.2539,0 -12.031,-3.3359 -15.156,-8.75s-3.125,-12.086 0,-17.5s8.9023,-8.75 15.156,-8.75zm0,70l122.5,0c6.2539,0 12.031,3.3359 15.156,8.75s3.125,12.086 0,17.5s-8.9023,8.75 -15.156,8.75l-122.5,0c-6.2539,0 -12.031,-3.3359 -15.156,-8.75s-3.125,-12.086 0,-17.5s8.9023,-8.75 15.156,-8.75zm35,175l-35,0c-6.2539,0 -12.031,-3.3359 -15.156,-8.75s-3.125,-12.086 0,-17.5s8.9023,-8.75 15.156,-8.75l35,0c6.2539,0 12.031,3.3359 15.156,8.75s3.125,12.086 0,17.5s-8.9023,8.75 -15.156,8.75zm17.5,-70l-52.5,0c-6.2539,0 -12.031,-3.3359 -15.156,-8.75s-3.125,-12.086 0,-17.5s8.9023,-8.75 15.156,-8.75l52.5,0c6.2539,0 12.031,3.3359 15.156,8.75s3.125,12.086 0,17.5s-8.9023,8.75 -15.156,8.75zm175,70l-122.5,0c-6.2539,0 -12.031,-3.3359 -15.156,-8.75s-3.125,-12.086 0,-17.5s8.9023,-8.75 15.156,-8.75l122.5,0c6.2539,0 12.031,3.3359 15.156,8.75s3.125,12.086 0,17.5s-8.9023,8.75 -15.156,8.75zm122.5,0l-52.5,0c-6.2539,0 -12.031,-3.3359 -15.156,-8.75s-3.125,-12.086 0,-17.5s8.9023,-8.75 15.156,-8.75l52.5,0c6.2539,0 12.031,3.3359 15.156,8.75s3.125,12.086 0,17.5s-8.9023,8.75 -15.156,8.75zm0,-70l-122.5,0c-6.2539,0 -12.031,-3.3359 -15.156,-8.75s-3.125,-12.086 0,-17.5s8.9023,-8.75 15.156,-8.75l122.5,0c6.2539,0 12.031,3.3359 15.156,8.75s3.125,12.086 0,17.5s-8.9023,8.75 -15.156,8.75zm0,-70l-35,0c-6.2539,0 -12.031,-3.3359 -15.156,-8.75s-3.125,-12.086 0,-17.5s8.9023,-8.75 15.156,-8.75l35,0c6.2539,0 12.031,3.3359 15.156,8.75s3.125,12.086 0,17.5s-8.9023,8.75 -15.156,8.75zm0,-70l-52.5,0c-6.2539,0 -12.031,-3.3359 -15.156,-8.75s-3.125,-12.086 0,-17.5s8.9023,-8.75 15.156,-8.75l52.5,0c6.2539,0 12.031,3.3359 15.156,8.75s3.125,12.086 0,17.5s-8.9023,8.75 -15.156,8.75z" id="svg_3" fill="#1b1c19"/>
  </g>
 </g>

</svg>