<svg width="575" height="575" xmlns="http://www.w3.org/2000/svg" version="1.1">

 <g>
  <title>Layer 1</title>
  <g id="svg_18">
   <path fill="#1b1c19" id="svg_2" d="m497.5,57.5l-420,0c-13.91,0.03906 -27.242,5.5859 -37.078,15.422s-15.383,23.168 -15.422,37.078l0,52.5l525,0l0,-52.5c-0.03906,-13.91 -5.5859,-27.242 -15.422,-37.078s-23.168,-15.383 -37.078,-15.422zm-385,70c-4.6406,0 -9.0938,-1.8438 -12.375,-5.125s-5.125,-7.7344 -5.125,-12.375s1.8438,-9.0938 5.125,-12.375s7.7344,-5.125 12.375,-5.125s9.0938,1.8438 12.375,5.125s5.125,7.7344 5.125,12.375c-0.01172,4.6367 -1.8633,9.082 -5.1406,12.359s-7.7227,5.1289 -12.359,5.1406l-0.0004,0.0004zm52.5,0c-4.6406,0 -9.0938,-1.8438 -12.375,-5.125s-5.125,-7.7344 -5.125,-12.375s1.8438,-9.0938 5.125,-12.375s7.7344,-5.125 12.375,-5.125s9.0938,1.8438 12.375,5.125s5.125,7.7344 5.125,12.375c-0.01172,4.6367 -1.8633,9.082 -5.1406,12.359s-7.7227,5.1289 -12.359,5.1406l-0.0004,0.0004zm52.5,0c-4.6406,0 -9.0938,-1.8438 -12.375,-5.125s-5.125,-7.7344 -5.125,-12.375s1.8438,-9.0938 5.125,-12.375s7.7344,-5.125 12.375,-5.125s9.0938,1.8438 12.375,5.125s5.125,7.7344 5.125,12.375c-0.01172,4.6367 -1.8633,9.082 -5.1406,12.359s-7.7227,5.1289 -12.359,5.1406l-0.0004,0.0004z"/>
   <rect id="svg_6" height="71.08433" width="116.86746" y="177.74095" x="67.31925" fill="#ff6188"/>
   <rect id="svg_7" height="59.03614" width="185.54216" y="260.87347" x="75.75299" fill="#ff6188"/>
   <rect id="svg_8" height="52.40964" width="113.25301" y="336.17467" x="79.36744" fill="#ff6188"/>
   <rect id="svg_9" height="59.03614" width="105.42168" y="400.6325" x="73.34335" fill="#ff6188"/>
   <rect id="svg_10" height="56.6265" width="178.31324" y="190.39155" x="187.80117" fill="#78dce8"/>
   <rect id="svg_11" height="58.43373" width="109.63855" y="190.99396" x="381.77707" fill="#fc9867"/>
   <rect id="svg_12" height="53.61446" width="106.6265" y="263.28311" x="398.04213" fill="#fc9867"/>
   <rect id="svg_13" height="54.81927" width="120.48192" y="401.23491" x="381.77707" fill="#fc9867"/>
   <rect id="svg_14" height="54.81927" width="190.96385" y="332.56022" x="305.27105" fill="#ab9df2"/>
   <rect id="svg_15" height="51.20482" width="107.22891" y="262.6807" x="276.9578" fill="#a9dc76"/>
   <rect id="svg_16" height="49.39759" width="90.36144" y="337.9819" x="207.68069" fill="#a9dc76"/>
   <rect id="svg_17" height="54.21686" width="180.72288" y="404.84937" x="189.00599" fill="#a9dc76"/>
   <path fill="#1b1c19" id="svg_3" d="m25,132.5l0,332.5c0.03906,13.91 5.5859,27.242 15.422,37.078s23.168,15.383 37.078,15.422l420,0c13.91,-0.03906 27.242,-5.5859 37.078,-15.422s15.383,-23.168 15.422,-37.078l0,-332.5l-525,0zm350,157.5c0,4.6406 -1.8438,9.0938 -5.125,12.375s-7.7344,5.125 -12.375,5.125l-52.5,0c-6.2539,0 -12.031,-3.3359 -15.156,-8.75s-3.125,-12.086 0,-17.5s8.9023,-8.75 15.156,-8.75l52.5,0c4.6406,0 9.0938,1.8438 12.375,5.125s5.125,7.7344 5.125,12.375zm-157.5,-87.5l122.5,0c6.2539,0 12.031,3.3359 15.156,8.75s3.125,12.086 0,17.5s-8.9023,8.75 -15.156,8.75l-122.5,0c-6.2539,0 -12.031,-3.3359 -15.156,-8.75s-3.125,-12.086 0,-17.5s8.9023,-8.75 15.156,-8.75zm70,157.5c0,4.6406 -1.8438,9.0938 -5.125,12.375s-7.7344,5.125 -12.375,5.125l-35,0c-6.2539,0 -12.031,-3.3359 -15.156,-8.75s-3.125,-12.086 0,-17.5s8.9023,-8.75 15.156,-8.75l35,0c4.6406,0 9.0938,1.8438 12.375,5.125s5.125,7.7344 5.125,12.375zm-175,-157.5l35,0c6.2539,0 12.031,3.3359 15.156,8.75s3.125,12.086 0,17.5s-8.9023,8.75 -15.156,8.75l-35,0c-6.2539,0 -12.031,-3.3359 -15.156,-8.75s-3.125,-12.086 0,-17.5s8.9023,-8.75 15.156,-8.75zm0,70l122.5,0c6.2539,0 12.031,3.3359 15.156,8.75s3.125,12.086 0,17.5s-8.9023,8.75 -15.156,8.75l-122.5,0c-6.2539,0 -12.031,-3.3359 -15.156,-8.75s-3.125,-12.086 0,-17.5s8.9023,-8.75 15.156,-8.75zm35,175l-35,0c-6.2539,0 -12.031,-3.3359 -15.156,-8.75s-3.125,-12.086 0,-17.5s8.9023,-8.75 15.156,-8.75l35,0c6.2539,0 12.031,3.3359 15.156,8.75s3.125,12.086 0,17.5s-8.9023,8.75 -15.156,8.75zm17.5,-70l-52.5,0c-6.2539,0 -12.031,-3.3359 -15.156,-8.75s-3.125,-12.086 0,-17.5s8.9023,-8.75 15.156,-8.75l52.5,0c6.2539,0 12.031,3.3359 15.156,8.75s3.125,12.086 0,17.5s-8.9023,8.75 -15.156,8.75zm175,70l-122.5,0c-6.2539,0 -12.031,-3.3359 -15.156,-8.75s-3.125,-12.086 0,-17.5s8.9023,-8.75 15.156,-8.75l122.5,0c6.2539,0 12.031,3.3359 15.156,8.75s3.125,12.086 0,17.5s-8.9023,8.75 -15.156,8.75zm122.5,0l-52.5,0c-6.2539,0 -12.031,-3.3359 -15.156,-8.75s-3.125,-12.086 0,-17.5s8.9023,-8.75 15.156,-8.75l52.5,0c6.2539,0 12.031,3.3359 15.156,8.75s3.125,12.086 0,17.5s-8.9023,8.75 -15.156,8.75zm0,-70l-122.5,0c-6.2539,0 -12.031,-3.3359 -15.156,-8.75s-3.125,-12.086 0,-17.5s8.9023,-8.75 15.156,-8.75l122.5,0c6.2539,0 12.031,3.3359 15.156,8.75s3.125,12.086 0,17.5s-8.9023,8.75 -15.156,8.75zm0,-70l-35,0c-6.2539,0 -12.031,-3.3359 -15.156,-8.75s-3.125,-12.086 0,-17.5s8.9023,-8.75 15.156,-8.75l35,0c6.2539,0 12.031,3.3359 15.156,8.75s3.125,12.086 0,17.5s-8.9023,8.75 -15.156,8.75zm0,-70l-52.5,0c-6.2539,0 -12.031,-3.3359 -15.156,-8.75s-3.125,-12.086 0,-17.5s8.9023,-8.75 15.156,-8.75l52.5,0c6.2539,0 12.031,3.3359 15.156,8.75s3.125,12.086 0,17.5s-8.9023,8.75 -15.156,8.75z"/>
  </g>
 </g>
</svg>